<svg width="14" height="14" viewBox="0 0 14 14" fill="none" xmlns="http://www.w3.org/2000/svg">
<g id="Group 427322305">
<path id="Vector 621" d="M1 12.5459V7.71533C1 7.21354 1.40678 6.80676 1.90856 6.80676H12.0914C12.5932 6.80676 13 7.21354 13 7.71533V12.5459C13 12.7968 12.7966 13.0002 12.5457 13.0002H1.45428C1.20339 13.0002 1 12.7968 1 12.5459Z" stroke="#ED9C00" stroke-width="0.999421"/>
<path id="Vector 623" d="M8.11198 6.80729V4.55194C8.11198 4.30105 7.90859 4.09766 7.6577 4.09766H5.89959C5.6487 4.09766 5.44531 4.30105 5.44531 4.55194V6.80729" stroke="#ED9C00" stroke-width="0.999421"/>
<path id="Vector 624" d="M7.0371 3.70963C6.44451 3.32254 5.80739 2.16127 7.0371 1C7.58518 1.77418 8.02962 2.93545 7.0371 3.70963Z" fill="#FFD0D5" stroke="#ED9C00" stroke-width="0.999421"/>
<path id="Vector 625" d="M1 8.71375H12.8095" stroke="#ED9C00" stroke-width="0.999421"/>
</g>
</svg>
