<svg width="12" height="14" viewBox="0 0 12 14" fill="none" xmlns="http://www.w3.org/2000/svg">
<g id="Group 427322330">
<path id="Vector" d="M11.5763 1.75019V7.98744C11.5429 8.13743 11.4725 8.26243 11.3354 8.34255C10.7888 8.66241 10.2013 8.84678 9.56687 8.8739C9.02827 8.8969 8.51141 8.78641 8.01093 8.59579C7.81507 8.52142 7.62995 8.41767 7.43296 8.34705C7.15797 8.2483 6.87735 8.15956 6.59549 8.08144C6.03301 7.92482 5.46591 7.89207 4.89193 8.02419C4.5067 8.11169 4.12791 8.22549 3.75823 8.3648C3.68648 8.39205 3.60336 8.40992 3.52799 8.40342C3.26163 8.3803 3.09138 8.18306 3.09126 7.91044C3.09067 6.99198 3.09067 6.07356 3.09126 5.15518C3.09126 4.05147 3.09126 2.94773 3.09126 1.84394C3.09126 1.61178 3.19959 1.45346 3.41624 1.36896C3.47237 1.34696 3.52874 1.32634 3.58586 1.30646C4.10059 1.12384 4.6252 0.980225 5.16817 0.910728C5.26692 0.898228 5.36579 0.887479 5.46466 0.875854H5.87714C5.8909 0.880215 5.90499 0.883434 5.91927 0.885479C6.358 0.914103 6.78486 1.00685 7.20122 1.14234C7.46158 1.22709 7.72257 1.31809 7.96868 1.43658C8.38992 1.6392 8.82277 1.79069 9.29188 1.81157C9.85173 1.83657 10.3706 1.6832 10.8574 1.41583C11.1562 1.25171 11.494 1.39808 11.5667 1.72832C11.5691 1.73593 11.5723 1.74326 11.5763 1.75019Z" fill="#ED9C00"/>
<path id="Vector_2" d="M2.22649 0.875C2.24787 0.88225 2.26899 0.889749 2.29049 0.896499C2.38372 0.925106 2.46586 0.981789 2.52568 1.05881C2.5855 1.13584 2.62009 1.22944 2.62473 1.32686C2.62635 1.35811 2.62573 1.38935 2.62573 1.4206V12.1817H2.71685C4.08754 12.1817 5.45832 12.1817 6.82918 12.1817C7.04105 12.1817 7.20117 12.2647 7.29166 12.4589C7.41153 12.7155 7.27304 13.0188 7.00242 13.1028C6.98105 13.1094 6.96005 13.1175 6.93893 13.125H1.15154C1.14461 13.1208 1.13728 13.1173 1.12966 13.1146C0.881798 13.053 0.72593 12.8396 0.753053 12.5996C0.780177 12.3597 0.980669 12.1852 1.23503 12.1824C1.36003 12.1812 1.48502 12.1824 1.61002 12.1824C1.63189 12.1824 1.65364 12.18 1.67927 12.1785V1.42873C1.67927 1.3996 1.67927 1.37035 1.67989 1.34123C1.68977 1.11474 1.82926 0.943497 2.04888 0.887499C2.05839 0.884043 2.06762 0.879865 2.0765 0.875H2.22649Z" fill="#ED9C00"/>
</g>
</svg>
