<svg width="20" height="20" viewBox="0 0 20 20" fill="none" xmlns="http://www.w3.org/2000/svg">
<path d="M0 10C0 4.47715 4.47715 0 10 0V0C15.5228 0 20 4.47715 20 10V10C20 15.5228 15.5228 20 10 20V20C4.47715 20 0 15.5228 0 10V10Z" fill="#FC82A9"/>
<path d="M6.85 5C4.72368 5 3 6.64124 3 8.66646C3 10.789 4.26945 12.7916 6.36875 14.6248C7.08527 15.2501 7.85674 15.7987 8.62184 16.2914C8.89001 16.4634 9.14082 16.6194 9.36566 16.7493C9.50272 16.8287 9.59309 16.886 9.65 16.916C9.8614 17.028 10.1386 17.028 10.35 16.916C10.4069 16.886 10.4973 16.8287 10.6343 16.7493C10.8592 16.6194 11.11 16.4634 11.3782 16.2914C12.1433 15.7987 12.9147 15.2501 13.6313 14.6248C15.7306 12.7916 17 10.789 17 8.66646C17 6.64124 15.2763 5 13.15 5C11.9424 5 10.7633 5.62664 10.0218 6.54126C9.29888 5.61064 8.12393 5 6.85 5ZM6.85 6.33326C7.69973 6.33326 8.49325 6.74391 8.95 7.37454C8.99438 7.43587 9.34431 7.92584 9.40934 8.0205C9.68017 8.41581 10.2844 8.42782 10.5688 8.04117C10.6379 7.94718 11.0021 7.45919 11.05 7.39586C11.5268 6.76123 12.3612 6.33326 13.15 6.33326C14.5031 6.33326 15.6 7.37787 15.6 8.66646C15.6 10.335 14.507 12.0196 12.6688 13.6248C12.0071 14.2021 11.3021 14.7288 10.5907 15.1868C10.3755 15.3254 10.1837 15.4334 10 15.5408C9.81632 15.4334 9.62445 15.3254 9.40934 15.1868C8.69793 14.7288 7.99289 14.2021 7.33125 13.6248C5.49305 12.0196 4.4 10.335 4.4 8.66646C4.4 7.37787 5.4969 6.33326 6.85 6.33326Z" fill="white"/>
</svg>
