<svg width="12" height="12" viewBox="0 0 12 12" fill="none" xmlns="http://www.w3.org/2000/svg">
<g id="Icon">
<path id="Vector 634" d="M3.6665 3.08333V3.08333C3.6665 1.79467 4.71117 0.75 5.99984 0.75V0.75C7.2885 0.75 8.33317 1.79467 8.33317 3.08333V3.08333" stroke="#ED9C00" stroke-width="1.5" stroke-linecap="round"/>
<rect id="Rectangle 266" x="4.83301" y="7.75" width="2.33333" height="1.16667" rx="0.125" fill="#ED9C00"/>
<path id="Subtract" fill-rule="evenodd" clip-rule="evenodd" d="M2.6665 3.08337C1.28579 3.08337 0.166504 4.20266 0.166504 5.58337V7.58337H3.89447C3.98022 7.19011 4.33041 6.89565 4.74938 6.89565H7.25029C7.66927 6.89565 8.01946 7.19011 8.10521 7.58337H8.10724H8.11637H8.12554H8.13474H8.14398H8.15324H8.16254H8.17187H8.18123H8.19062H8.20005H8.2095H8.21899H8.22851H8.23805H8.24763H8.25724H8.26688H8.27655H8.28625H8.29598H8.30574H8.31552H8.32534H8.33519H8.34506H8.35496H8.36489H8.37485H8.38484H8.39486H8.4049H8.41497H8.42507H8.4352H8.44535H8.45553H8.46574H8.47597H8.48623H8.49652H8.50683H8.51716H8.52753H8.53792H8.54833H8.55877H8.56923H8.57972H8.59024H8.60078H8.61134H8.62193H8.63254H8.64317H8.65383H8.66451H8.67522H8.68594H8.6967H8.70747H8.71827H8.72908H8.73993H8.75079H8.76167H8.77258H8.78351H8.79446H8.80543H8.81642H8.82743H8.83847H8.84952H8.86059H8.87169H8.8828H8.89394H8.90509H8.91626H8.92746H8.93867H8.9499H8.96115H8.97242H8.9837H8.99501H9.00633H9.01767H9.02903H9.04041H9.0518H9.06321H9.07464H9.08608H9.09754H9.10902H9.12052H9.13203H9.14355H9.1551H9.16665H9.17823H9.18982H9.20142H9.21304H9.22467H9.23632H9.24798H9.25966H9.27135H9.28306H9.29478H9.30651H9.31826H9.33001H9.34179H9.35357H9.36537H9.37718H9.389H9.40084H9.41269H9.42455H9.43642H9.4483H9.46019H9.4721H9.48401H9.49594H9.50788H9.51982H9.53178H9.54375H9.55573H9.56772H9.57971H9.59172H9.60374H9.61576H9.6278H9.63984H9.65189H9.66395H9.67602H9.6881H9.70018H9.71227H9.72437H9.73648H9.74859H9.76072H9.77284H9.78498H9.79712H9.80927H9.82142H9.83358H9.84575H9.85792H9.87009H9.88228H9.89446H9.90666H9.91885H9.93105H9.94326H9.95547H9.96768H9.9799H9.99212H10.0044H10.0166H10.0288H10.041H10.0533H10.0655H10.0778H10.09H10.1023H10.1145H10.1268H10.139H10.1513H10.1635H10.1758H10.188H10.2003H10.2126H10.2248H10.2371H10.2493H10.2616H10.2739H10.2861H10.2984H10.3106H10.3229H10.3352H10.3474H10.3597H10.3719H10.3842H10.3964H10.4087H10.4209H10.4332H10.4454H10.4576H10.4699H10.4821H10.4943H10.5065H10.5188H10.531H10.5432H10.5554H10.5676H10.5798H10.592H10.6042H10.6164H10.6285H10.6407H10.6529H10.665H10.6772H10.6894H10.7015H10.7136H10.7258H10.7379H10.75H10.7621H10.7742H10.7863H10.7984H10.8105H10.8225H10.8346H10.8467H10.8587H10.8707H10.8828H10.8948H10.9068H10.9188H10.9308H10.9428H10.9548H10.9667H10.9787H10.9906H11.0025H11.0145H11.0264H11.0383H11.0502H11.062H11.0739H11.0857H11.0976H11.1094H11.1212H11.133H11.1448H11.1566H11.1684H11.1801H11.1918H11.2036H11.2153H11.227H11.2387H11.2503H11.262H11.2736H11.2852H11.2969H11.3084H11.32H11.3316H11.3431H11.3547H11.3662H11.3777H11.3892H11.4006H11.4121H11.4235H11.4349H11.4463H11.4577H11.4691H11.4804H11.4918H11.5031H11.5144H11.5256H11.5369H11.5481H11.5594H11.5706H11.5817H11.5929H11.604H11.6152H11.6263H11.6373H11.6484H11.6594H11.6705H11.6815H11.6924H11.7034H11.7143H11.7252H11.7361H11.747H11.7579H11.7687H11.7795H11.7903H11.801H11.8118H11.8225H11.8332V5.58337C11.8332 4.20266 10.7139 3.08337 9.33317 3.08337H2.6665ZM3.89447 9.08337H0.188533C0.351497 10.3065 1.39881 11.25 2.66651 11.25H9.33317C10.6009 11.25 11.6482 10.3065 11.8111 9.08337H11.801H11.7903H11.7795H11.7687H11.7579H11.747H11.7361H11.7252H11.7143H11.7034H11.6924H11.6815H11.6705H11.6594H11.6484H11.6373H11.6263H11.6152H11.604H11.5929H11.5817H11.5706H11.5594H11.5481H11.5369H11.5256H11.5144H11.5031H11.4918H11.4804H11.4691H11.4577H11.4463H11.4349H11.4235H11.4121H11.4006H11.3892H11.3777H11.3662H11.3547H11.3431H11.3316H11.32H11.3084H11.2969H11.2852H11.2736H11.262H11.2503H11.2387H11.227H11.2153H11.2036H11.1918H11.1801H11.1684H11.1566H11.1448H11.133H11.1212H11.1094H11.0976H11.0857H11.0739H11.062H11.0502H11.0383H11.0264H11.0145H11.0025H10.9906H10.9787H10.9667H10.9548H10.9428H10.9308H10.9188H10.9068H10.8948H10.8828H10.8707H10.8587H10.8467H10.8346H10.8225H10.8105H10.7984H10.7863H10.7742H10.7621H10.75H10.7379H10.7258H10.7136H10.7015H10.6894H10.6772H10.665H10.6529H10.6407H10.6285H10.6164H10.6042H10.592H10.5798H10.5676H10.5554H10.5432H10.531H10.5188H10.5065H10.4943H10.4821H10.4699H10.4576H10.4454H10.4332H10.4209H10.4087H10.3964H10.3842H10.3719H10.3597H10.3474H10.3352H10.3229H10.3106H10.2984H10.2861H10.2739H10.2616H10.2493H10.2371H10.2248H10.2126H10.2003H10.188H10.1758H10.1635H10.1513H10.139H10.1268H10.1145H10.1023H10.09H10.0778H10.0655H10.0533H10.041H10.0288H10.0166H10.0044H9.99212H9.9799H9.96768H9.95547H9.94326H9.93105H9.91885H9.90666H9.89446H9.88228H9.87009H9.85792H9.84575H9.83358H9.82142H9.80927H9.79712H9.78498H9.77284H9.76072H9.74859H9.73648H9.72437H9.71227H9.70018H9.6881H9.67602H9.66395H9.65189H9.63984H9.6278H9.61576H9.60374H9.59172H9.57971H9.56772H9.55573H9.54375H9.53178H9.51982H9.50788H9.49594H9.48401H9.4721H9.46019H9.4483H9.43642H9.42455H9.41269H9.40084H9.389H9.37718H9.36537H9.35357H9.34179H9.33001H9.31826H9.30651H9.29478H9.28306H9.27135H9.25966H9.24798H9.23632H9.22467H9.21304H9.20142H9.18982H9.17823H9.16665H9.1551H9.14355H9.13203H9.12052H9.10902H9.09754H9.08608H9.07464H9.06321H9.0518H9.04041H9.02903H9.01767H9.00633H8.99501H8.9837H8.97242H8.96115H8.9499H8.93867H8.92746H8.91626H8.90509H8.89394H8.8828H8.87169H8.86059H8.84952H8.83847H8.82743H8.81642H8.80543H8.79446H8.78351H8.77258H8.76167H8.75079H8.73993H8.72908H8.71827H8.70747H8.6967H8.68594H8.67522H8.66451H8.65383H8.64317H8.63254H8.62193H8.61134H8.60078H8.59024H8.57972H8.56923H8.55877H8.54833H8.53792H8.52753H8.51716H8.50683H8.49652H8.48623H8.47597H8.46574H8.45553H8.44535H8.4352H8.42507H8.41497H8.4049H8.39486H8.38484H8.37485H8.36489H8.35496H8.34506H8.33519H8.32534H8.31552H8.30574H8.29598H8.28625H8.27655H8.26688H8.25724H8.24763H8.23805H8.22851H8.21899H8.2095H8.20005H8.19062H8.18123H8.17187H8.16254H8.15324H8.14398H8.13474H8.12554H8.11637H8.10724H8.10521C8.01946 9.47664 7.66926 9.7711 7.25029 9.7711H4.74938C4.33041 9.7711 3.98022 9.47663 3.89447 9.08337Z" fill="#ED9C00"/>
</g>
</svg>
