<svg width="14" height="14" viewBox="0 0 14 14" fill="none" xmlns="http://www.w3.org/2000/svg">
<g id="people">
<path id="Vector" d="M9.04118 1.75C7.59142 1.75 6.41618 2.92542 6.41618 4.375C6.41618 5.82458 7.59142 7 9.04118 7C10.4909 7 11.6662 5.82458 11.6662 4.375C11.6662 2.92542 10.4909 1.75 9.04118 1.75ZM9.04118 2.91667C9.84659 2.91667 10.4995 3.56942 10.4995 4.375C10.4995 5.18058 9.84659 5.83333 9.04118 5.83333C8.23577 5.83333 7.58284 5.18058 7.58284 4.375C7.58284 3.56942 8.23577 2.91667 9.04118 2.91667ZM7.03597 7.784C5.96608 8.22558 5.24951 9.30767 5.24951 10.5V11.6667C5.24951 11.9887 5.51067 12.25 5.83285 12.25H12.2495C12.5717 12.25 12.8328 11.9887 12.8328 11.6667V10.5C12.8328 9.33567 12.1123 8.27984 11.0464 7.82017C10.8964 7.75542 10.7215 7.75367 10.5724 7.82017C10.0563 8.05175 9.55346 8.16667 9.04118 8.16667C8.53064 8.16667 8.02606 8.04533 7.49173 7.80208C7.34479 7.735 7.18519 7.72216 7.03597 7.784ZM7.26026 8.97751C7.81139 9.18634 8.47587 9.33333 9.04118 9.33333C9.60205 9.33333 10.2391 9.19624 10.779 8.99674C11.3056 9.29657 11.6662 9.85775 11.6662 10.5V11.0833H6.41618V10.5C6.41618 9.82042 6.79879 9.24759 7.26026 8.97751Z" fill="#ED9C00"/>
<path id="Vector_2" d="M4.6665 2.33362C3.37786 2.33362 2.33317 3.37837 2.33317 4.66695C2.33317 5.95553 3.37786 7.00028 4.6665 7.00028C5.15032 7.00028 5.60859 6.8527 5.9972 6.58087C6.26128 6.39654 6.3276 6.02495 6.14304 5.7607C5.95847 5.49645 5.60503 5.44862 5.34095 5.63295C5.14676 5.76887 4.90929 5.83362 4.6665 5.83362C4.02215 5.83362 3.49984 5.31153 3.49984 4.66695C3.49984 4.02237 4.02215 3.50028 4.6665 3.50028C4.85679 3.50028 5.03085 3.54228 5.19512 3.62803C5.48095 3.77678 5.84857 3.67646 5.9972 3.39062C6.1459 3.10537 6.02783 2.73728 5.74205 2.58911C5.41241 2.41761 5.04532 2.33362 4.6665 2.33362ZM2.95296 7.78428C1.88307 8.22586 1.1665 9.30795 1.1665 10.5003V11.667C1.1665 11.989 1.42766 12.2503 1.74984 12.2503H4.08317C4.40535 12.2503 4.6665 11.989 4.6665 11.667C4.6665 11.345 4.40535 11.0836 4.08317 11.0836H2.33317V10.5003C2.33317 9.84462 2.72208 9.24263 3.16909 8.97779C3.5895 9.15513 4.03423 9.2893 4.42973 9.32255C4.7508 9.34996 5.0403 9.10787 5.06755 8.78646C5.09479 8.46562 4.8628 8.1938 4.54179 8.16638C4.2857 8.1448 4.00582 8.06778 3.68213 7.93011C3.60396 7.89686 3.55858 7.87062 3.40872 7.80237C3.26178 7.73528 3.10218 7.72245 2.95296 7.78428Z" fill="#ED9C00"/>
</g>
</svg>
