<svg width="171" height="207" viewBox="0 0 171 207" fill="none" xmlns="http://www.w3.org/2000/svg">
<g filter="url(#filter0_i_47_1215)">
<path d="M0.000606185 207L0 111.881C0.837582 111.729 1.9056 111.208 1.9056 109.934C1.90343 109.199 1.5782 108.491 0.991234 107.942C2.81792 107.686 6.08871 106.682 6.08871 102.786C6.08871 100.633 5.09363 98.6168 3.21106 96.9558C2.54166 96.3658 1.79188 95.8425 0.976852 95.3967C8.03474 90.5823 10.0585 84.3841 10.501 79.9798C11.042 74.5955 9.4682 69.6542 7.66848 67.1456C5.72211 64.4328 4.48162 62.1543 3.76455 59.9753C2.91517 57.394 2.82006 54.9666 3.47376 52.5545C4.03484 50.484 5.56524 48.759 8.02244 47.4275C9.13675 46.8211 10.3487 46.3489 11.6222 46.0248L11.9911 45.9427L11.9915 45.6252C11.9915 45.4497 11.9532 45.177 11.9002 44.7995C11.6203 42.8052 10.8766 37.5073 14.5339 33.6533C18.0825 29.9138 23.6296 29.6232 25.2452 29.6232C25.605 29.6232 25.816 29.6368 25.816 29.6368L26.3912 29.6748L26.3523 29.1963C26.2005 27.3508 26.7208 25.0324 27.7442 22.9945C28.6449 21.2012 30.3883 18.7153 33.5794 17.0575C35.7579 15.9256 38.5958 15.3518 42.0141 15.3518C43.933 15.3519 45.8461 15.5262 47.7195 15.8716L48.1361 15.9582L48.3002 15.6283C48.9505 14.3195 52.5706 7.71671 59.9932 6.25269C60.9342 6.06473 61.8984 5.9685 62.8663 5.96593C67.6623 5.96593 70.5385 8.44667 70.567 8.47175L72.0976 9.8179L71.4013 8.05835C71.3717 7.98036 70.683 6.07402 73.1437 4.23571C74.3236 3.35419 75.3226 3.17358 76.4594 3.17358C76.8355 3.17358 77.2275 3.1931 77.6426 3.21374C78.1173 3.23737 78.6082 3.26177 79.1461 3.26173C79.9059 3.26444 80.6643 3.20636 81.4108 3.08827C83.1281 2.81323 84.4677 1.89244 85.2846 0.425476C85.3648 0.281431 85.4362 0.138916 85.4997 0C85.5632 0.138916 85.6346 0.281431 85.7148 0.425476C86.5317 1.89244 87.8712 2.81323 89.5886 3.08827C90.3351 3.20638 91.0935 3.26447 91.8533 3.26173C92.3911 3.26173 92.8819 3.23733 93.3566 3.21374C93.7718 3.1931 94.1638 3.17358 94.5401 3.17358C95.677 3.17358 96.6759 3.35419 97.8559 4.23571C100.317 6.07402 99.6278 7.98036 99.5973 8.06062L98.9433 9.78021L100.432 8.47171C100.461 8.44719 103.356 5.96593 108.133 5.96593C109.101 5.9685 110.065 6.06473 111.006 6.25269C118.429 7.71674 122.049 14.3195 122.699 15.6283L122.863 15.9582L123.28 15.8716C125.153 15.5262 127.066 15.3519 128.985 15.3518C132.404 15.3518 135.242 15.9256 137.42 17.0575C140.611 18.7153 142.355 21.2012 143.255 22.9945C144.279 25.0325 144.799 27.3509 144.647 29.1963L144.608 29.6758L145.184 29.6368C145.184 29.6368 145.394 29.6232 145.754 29.6232C147.37 29.6232 152.917 29.9138 156.465 33.6533C160.123 37.5073 159.379 42.8052 159.099 44.7995C159.046 45.177 159.008 45.4497 159.008 45.6252V45.9431L159.378 46.0249C160.651 46.349 161.863 46.8212 162.977 47.4275C165.434 48.759 166.964 50.484 167.526 52.5545C168.179 54.9666 168.084 57.3939 167.235 59.9753C166.518 62.1543 165.277 64.4327 163.331 67.1456C161.531 69.6541 159.957 74.5954 160.498 79.9798C160.941 84.3841 162.965 90.5823 170.023 95.3967C169.208 95.8426 168.458 96.3658 167.788 96.9558C165.906 98.6168 164.911 100.633 164.911 102.786C164.911 105.436 166.476 106.713 167.789 107.317C168.48 107.629 169.23 107.841 170.006 107.945C169.42 108.493 169.096 109.2 169.094 109.934C169.094 111.208 170.162 111.729 170.999 111.881L171 207H0.000606185Z" fill="#FFFEF0"/>
</g>
<path d="M2.16333 108.383C2.42251 108.858 2.56499 109.385 2.56661 109.932L2.56662 109.934C2.56661 110.784 2.19853 111.414 1.68907 111.836C1.37234 112.099 1.00991 112.277 0.66102 112.393L0.661619 206.339H170.339L170.338 112.393C169.989 112.277 169.627 112.099 169.31 111.836C168.801 111.414 168.433 110.784 168.433 109.934V109.932C168.434 109.386 168.576 108.86 168.835 108.386C168.381 108.266 167.94 108.11 167.518 107.92L167.513 107.918C166.05 107.244 164.25 105.775 164.25 102.786C164.25 100.411 165.352 98.2237 167.351 96.4602L167.351 96.46C167.806 96.0589 168.295 95.688 168.814 95.3497C162.233 90.492 160.28 84.4184 159.841 80.0459C159.285 74.5187 160.891 69.4131 162.794 66.7603C164.717 64.0795 165.918 61.862 166.607 59.7686C167.42 57.2989 167.505 55.0038 166.888 52.7274C166.387 50.8801 165.011 49.2814 162.662 48.0087L162.661 48.0081C161.6 47.4306 160.443 46.979 159.225 46.6681L158.865 46.5886L158.347 46.474V45.9431V45.6252C158.347 45.4026 158.391 45.0916 158.437 44.7589L158.445 44.7076C158.728 42.6863 159.4 37.7064 155.986 34.1083C154.324 32.3568 152.176 31.3959 150.215 30.8748C148.257 30.3543 146.527 30.2842 145.754 30.2842C145.582 30.2842 145.448 30.2874 145.357 30.2906C145.312 30.2922 145.278 30.2937 145.256 30.2948L145.232 30.2961L145.228 30.2963L145.227 30.2964L145.226 30.2964L145.226 30.2964L2.16333 108.383ZM2.16333 108.383C2.9503 108.179 3.83394 107.837 4.61686 107.261C5.82365 106.373 6.74973 104.954 6.74973 102.786C6.74973 100.411 5.64715 98.2237 3.64839 96.4602L3.64815 96.46C3.19321 96.0589 2.70409 95.688 2.18525 95.3497M2.16333 108.383L2.18525 95.3497M91.8545 3.92275C92.4083 3.92271 92.9124 3.89765 93.3836 3.87423L93.3894 3.87394C93.8081 3.85312 94.1833 3.8346 94.5401 3.8346C95.5742 3.8346 96.4228 3.99017 97.4603 4.76527C98.5683 5.59303 98.9116 6.38758 99.0106 6.92684C99.1078 7.45589 98.9831 7.81514 98.9788 7.82751C98.9787 7.82773 98.9787 7.82784 98.9787 7.82784L98.3255 9.54523L99.3797 10.2768L100.866 8.97041C100.866 8.97075 100.866 8.97062 100.867 8.97005C100.915 8.92956 103.647 6.62724 108.132 6.62695C109.057 6.62946 109.978 6.72148 110.877 6.90091L110.878 6.90121C117.975 8.30091 121.47 14.6408 122.107 15.9224L122.271 16.2522L122.498 16.7092L122.998 16.6054L123.407 16.5204C125.238 16.1832 127.109 16.0129 128.985 16.0128C132.337 16.0128 135.061 16.5765 137.115 17.644C140.148 19.2196 141.806 21.5815 142.664 23.2912C143.646 25.2457 144.128 27.4429 143.988 29.1421L143.949 29.6216L143.886 30.3871L144.652 30.3353L145.226 30.2965L85.8621 0.747082M91.8545 3.92275C91.8541 3.92275 91.8537 3.92275 91.8533 3.92275V3.26173L91.8557 3.92274C91.8553 3.92274 91.8549 3.92274 91.8545 3.92275ZM91.8545 3.92275C91.0599 3.92555 90.2665 3.86478 89.4853 3.74117L89.4841 3.74097C87.8076 3.47247 86.4326 2.64014 85.4997 1.32308M85.4997 1.32308C85.6291 1.14034 85.7501 0.948272 85.8621 0.747082M85.4997 1.32308C85.3702 1.14034 85.2493 0.948262 85.1373 0.747067L85.1372 0.746955C85.1301 0.734186 85.1231 0.721431 85.1161 0.70869C85.1745 0.616682 85.2307 0.522269 85.2846 0.425476C85.3648 0.281431 85.4362 0.138916 85.4997 0C85.5632 0.138916 85.6346 0.281431 85.7148 0.425476C85.7687 0.522275 85.8249 0.616695 85.8833 0.708708L81.4108 3.08827C80.6643 3.20636 79.9059 3.26444 79.1461 3.26173M85.4997 1.32308C84.5668 2.64013 83.1918 3.47247 81.5153 3.74097L81.514 3.74117C80.7329 3.86475 79.9396 3.92552 79.145 3.92275M85.8621 0.747082C85.8621 0.747091 85.8621 0.747098 85.8621 0.747107L85.4997 0.545263L85.8621 0.747082ZM79.145 3.92275C79.1454 3.92275 79.1458 3.92275 79.1462 3.92275L79.1461 3.26173M79.145 3.92275C78.5905 3.92275 78.0859 3.89764 77.6142 3.87416L77.6098 3.87394C77.1912 3.85312 76.8161 3.8346 76.4594 3.8346C75.4254 3.8346 74.5768 3.99017 73.5393 4.76527C72.4313 5.59304 72.0879 6.38763 71.9888 6.92672C71.8938 7.44316 72.0104 7.79727 72.0194 7.8237C72.0197 7.82475 72.0199 7.82528 72.0199 7.82528L72.7122 9.57468L71.6611 10.3143L70.1304 8.96812L70.1303 8.968C70.1305 8.96818 70.1302 8.96792 70.1294 8.96723C70.0702 8.91721 67.3598 6.62724 62.8672 6.62695C61.9421 6.62946 61.021 6.72148 60.1226 6.90091L60.1211 6.90122C53.0248 8.30087 49.529 14.6408 48.8921 15.9224L48.892 15.9227L48.7279 16.2526L48.5008 16.709L48.0017 16.6054L47.5924 16.5204C45.7612 16.1832 43.8906 16.013 42.0141 16.0128C38.6625 16.0128 35.9389 16.5765 33.8841 17.644C30.8515 19.2196 29.1936 21.5815 28.3349 23.2912C27.3534 25.2457 26.8713 27.4428 27.0111 29.1421L27.0112 29.1428L27.0501 29.6212L27.1121 30.3847L26.3477 30.3343L25.7738 30.2965L25.7737 30.2965L25.7736 30.2965L25.7734 30.2965L25.7734 30.2965L25.7731 30.2965L25.7725 30.2964L25.7682 30.2962L25.7441 30.2949C25.722 30.2938 25.6878 30.2922 25.6424 30.2906C25.5518 30.2875 25.4168 30.2842 25.2452 30.2842C24.4719 30.2842 22.7427 30.3543 20.7842 30.8748C18.8235 31.3959 16.6755 32.3568 15.0134 34.1083C11.599 37.7064 12.2711 42.6863 12.5548 44.7077L12.5548 44.7077L12.562 44.7588C12.6088 45.0916 12.6525 45.4026 12.6525 45.6252V45.6261L12.6521 45.9436L12.6513 46.4728L12.1348 46.5879L11.7757 46.6679C10.557 46.9788 9.39993 47.4305 8.3384 48.0081L8.33737 48.0087C5.98865 49.2814 4.61236 50.8801 4.11177 52.7274L3.47887 52.5559L4.11177 52.7274C3.49483 55.0039 3.57979 57.299 4.39245 59.7686C5.08132 61.862 6.28222 64.0795 8.20557 66.7603C10.1088 69.4131 11.714 74.5188 11.1587 80.0459C10.7194 84.4184 8.7665 90.4921 2.18525 95.3497M79.145 3.92275C79.1446 3.92274 79.1442 3.92274 79.1438 3.92274L79.1461 3.26173M79.1461 3.26173L2.18525 95.3497M11.9911 45.9427L11.6222 46.0248C10.3487 46.3489 9.13675 46.8211 8.02244 47.4275C5.56524 48.759 4.03484 50.484 3.47376 52.5545L11.9911 45.9427ZM11.9911 45.9427L11.9915 45.6252C11.9915 45.45 11.9533 45.1777 11.9004 44.8009L11.9002 44.7995C11.6203 42.8052 10.8766 37.5073 14.5339 33.6533C18.0825 29.9138 23.6296 29.6232 25.2452 29.6232C25.4656 29.6232 25.6301 29.6283 25.7246 29.6323M11.9911 45.9427L25.7246 29.6323M71.5633 8.46774L71.4013 8.05835M71.5633 8.46774L77.6426 3.21374L77.6412 3.21367C77.2267 3.19305 76.8351 3.17358 76.4594 3.17358C75.3226 3.17358 74.3236 3.35419 73.1437 4.23571C70.683 6.07402 71.3717 7.98036 71.4013 8.05835M71.5633 8.46774L72.5341 9.32153L72.0976 9.8179L71.5633 8.46774ZM71.4013 8.05835L72.0193 7.82355L72.016 7.81514L71.4013 8.05835ZM47.7195 15.8716C45.8461 15.5262 43.933 15.3519 42.0141 15.3518C38.5958 15.3518 35.7579 15.9256 33.5794 17.0575C30.3883 18.7153 28.6449 21.2012 27.7442 22.9945C26.7552 24.964 26.236 27.1955 26.3393 29.0089L26.4347 29.0152L26.4231 29.1905L26.4231 29.1905L26.3912 29.6748L25.8105 29.7219L47.7195 15.8716ZM47.7195 15.8716L48.1361 15.9582M47.7195 15.8716L48.1361 15.9582M25.7246 29.6323L25.7324 29.7283L25.8104 29.7219L25.7246 29.6323ZM48.1361 15.9582L48.3002 15.6283M48.1361 15.9582L48.3002 15.6283M48.3002 15.6283C48.9505 14.3195 52.5706 7.71671 59.9932 6.25269L48.3002 15.6283ZM98.9433 9.78021L98.507 9.28365L99.446 8.45859L98.9433 9.78021ZM98.9433 9.78021L99.5612 10.0152L100.006 8.84688L98.9433 9.78021Z" stroke="url(#paint0_linear_47_1215)" stroke-width="1.32203"/>
<defs>
<filter id="filter0_i_47_1215" x="0" y="0" width="175.407" height="210.085" filterUnits="userSpaceOnUse" color-interpolation-filters="sRGB">
<feFlood flood-opacity="0" result="BackgroundImageFix"/>
<feBlend mode="normal" in="SourceGraphic" in2="BackgroundImageFix" result="shape"/>
<feColorMatrix in="SourceAlpha" type="matrix" values="0 0 0 0 0 0 0 0 0 0 0 0 0 0 0 0 0 0 127 0" result="hardAlpha"/>
<feOffset dx="4.40678" dy="3.08475"/>
<feGaussianBlur stdDeviation="5.94915"/>
<feComposite in2="hardAlpha" operator="arithmetic" k2="-1" k3="1"/>
<feColorMatrix type="matrix" values="0 0 0 0 0 0 0 0 0 0 0 0 0 0 0 0 0 0 0.25 0"/>
<feBlend mode="normal" in2="shape" result="effect1_innerShadow_47_1215"/>
</filter>
<linearGradient id="paint0_linear_47_1215" x1="10.8404" y1="29.5092" x2="192.664" y2="211.627" gradientUnits="userSpaceOnUse">
<stop stop-color="#C4A204"/>
<stop offset="1" stop-color="#D09767"/>
</linearGradient>
</defs>
</svg>
